# xmcd CD database file
#
# Track frame offsets:
#	150
#	66724
#	127071
#	158895
#	167976
#	257882
#
# Disc length: 4208 seconds
#
# Revision: 0
# Processed by: cddbd v1.5PL3 Copyright (c) Steve Scherf et al.
# Submitted via: CDex 1.50Beta7
#
DISCID=5d106e06
DTITLE=André Ceccarelli - Carte Blanche CD2
DYEAR=2004
DGENRE=Jazz
TTITLE0=All Blues
TTITLE1=Solar
TTITLE2=Alone Together
TTITLE3=Interlude
TTITLE4=Jazz A Doc
TTITLE5=La Javanaise
EXTD=YEAR: 2004
EXTT0=
EXTT1=
EXTT2=
EXTT3=
EXTT4=
EXTT5=
PLAYORDER=
